<mxfile host="65bd71144e">
    <diagram id="B_E1RcpSDWl4YLS79nxR" name="Page-1">
        <mxGraphModel dx="1472" dy="420" grid="1" gridSize="10" guides="1" tooltips="1" connect="1" arrows="1" fold="1" page="1" pageScale="1" pageWidth="850" pageHeight="1100" math="1" shadow="0">
            <root>
                <mxCell id="0"/>
                <mxCell id="1" parent="0"/>
                <mxCell id="20" style="edgeStyle=orthogonalEdgeStyle;rounded=0;orthogonalLoop=1;jettySize=auto;html=1;entryX=0.5;entryY=0;entryDx=0;entryDy=0;" parent="1" target="146" edge="1">
                    <mxGeometry relative="1" as="geometry">
                        <mxPoint x="306" y="20" as="sourcePoint"/>
                        <mxPoint x="305.5" y="80" as="targetPoint"/>
                        <Array as="points">
                            <mxPoint x="305" y="20"/>
                        </Array>
                    </mxGeometry>
                </mxCell>
                <mxCell id="134" value="(input sentence)" style="edgeLabel;html=1;align=center;verticalAlign=middle;resizable=0;points=[];fontSize=12;" parent="20" vertex="1" connectable="0">
                    <mxGeometry x="-0.1497" relative="1" as="geometry">
                        <mxPoint y="9" as="offset"/>
                    </mxGeometry>
                </mxCell>
                <mxCell id="21" style="edgeStyle=orthogonalEdgeStyle;rounded=0;orthogonalLoop=1;jettySize=auto;html=1;exitX=0.5;exitY=1;exitDx=0;exitDy=0;entryX=0.5;entryY=0;entryDx=0;entryDy=0;" parent="1" source="3" target="5" edge="1">
                    <mxGeometry relative="1" as="geometry"/>
                </mxCell>
                <mxCell id="3" value="Parse" style="rounded=0;whiteSpace=wrap;html=1;" parent="1" vertex="1">
                    <mxGeometry x="251" y="230" width="110" height="30" as="geometry"/>
                </mxCell>
                <mxCell id="22" style="edgeStyle=orthogonalEdgeStyle;rounded=0;orthogonalLoop=1;jettySize=auto;html=1;exitX=1;exitY=0.5;exitDx=0;exitDy=0;entryX=0.5;entryY=0;entryDx=0;entryDy=0;" parent="1" source="5" target="8" edge="1">
                    <mxGeometry relative="1" as="geometry">
                        <mxPoint x="531" y="305" as="targetPoint"/>
                    </mxGeometry>
                </mxCell>
                <mxCell id="40" value="not verb-centric" style="edgeLabel;html=1;align=center;verticalAlign=middle;resizable=0;points=[];fontSize=12;" parent="22" vertex="1" connectable="0">
                    <mxGeometry x="-0.3436" relative="1" as="geometry">
                        <mxPoint x="11" y="-2" as="offset"/>
                    </mxGeometry>
                </mxCell>
                <mxCell id="100" style="edgeStyle=orthogonalEdgeStyle;rounded=0;orthogonalLoop=1;jettySize=auto;html=1;fontSize=10;entryX=0.5;entryY=0;entryDx=0;entryDy=0;" parent="1" source="5" target="137" edge="1">
                    <mxGeometry relative="1" as="geometry">
                        <mxPoint x="195" y="754" as="targetPoint"/>
                    </mxGeometry>
                </mxCell>
                <mxCell id="126" value="yes" style="edgeLabel;html=1;align=center;verticalAlign=middle;resizable=0;points=[];fontSize=12;" parent="100" vertex="1" connectable="0">
                    <mxGeometry x="-0.9303" y="1" relative="1" as="geometry">
                        <mxPoint x="-2" y="-3" as="offset"/>
                    </mxGeometry>
                </mxCell>
                <mxCell id="5" value="Strong&lt;br&gt;verb-centric?" style="rhombus;whiteSpace=wrap;html=1;" parent="1" vertex="1">
                    <mxGeometry x="251" y="280" width="110" height="50" as="geometry"/>
                </mxCell>
                <mxCell id="55" style="edgeStyle=orthogonalEdgeStyle;rounded=0;orthogonalLoop=1;jettySize=auto;html=1;entryX=0.5;entryY=0;entryDx=0;entryDy=0;" parent="1" source="8" target="60" edge="1">
                    <mxGeometry relative="1" as="geometry">
                        <Array as="points">
                            <mxPoint x="568" y="355"/>
                        </Array>
                        <mxPoint x="568" y="600" as="targetPoint"/>
                    </mxGeometry>
                </mxCell>
                <mxCell id="58" value="not paraphrasable" style="edgeLabel;html=1;align=center;verticalAlign=middle;resizable=0;points=[];fontSize=12;" parent="55" vertex="1" connectable="0">
                    <mxGeometry x="-0.4515" relative="1" as="geometry">
                        <mxPoint x="-1" y="-18" as="offset"/>
                    </mxGeometry>
                </mxCell>
                <mxCell id="112" style="edgeStyle=orthogonalEdgeStyle;rounded=0;orthogonalLoop=1;jettySize=auto;html=1;entryX=0.5;entryY=0;entryDx=0;entryDy=0;" parent="1" source="8" target="10" edge="1">
                    <mxGeometry relative="1" as="geometry">
                        <Array as="points">
                            <mxPoint x="386" y="355"/>
                        </Array>
                    </mxGeometry>
                </mxCell>
                <mxCell id="114" value="Success" style="edgeLabel;html=1;align=center;verticalAlign=middle;resizable=0;points=[];" parent="112" vertex="1" connectable="0">
                    <mxGeometry x="0.15" y="-1" relative="1" as="geometry">
                        <mxPoint y="12" as="offset"/>
                    </mxGeometry>
                </mxCell>
                <mxCell id="8" value="Paraphrase" style="rhombus;whiteSpace=wrap;html=1;" parent="1" vertex="1">
                    <mxGeometry x="421" y="330" width="110" height="50" as="geometry"/>
                </mxCell>
                <mxCell id="31" style="edgeStyle=orthogonalEdgeStyle;rounded=0;orthogonalLoop=1;jettySize=auto;html=1;exitX=0.5;exitY=1;exitDx=0;exitDy=0;entryX=0.5;entryY=0;entryDx=0;entryDy=0;" parent="1" source="10" target="11" edge="1">
                    <mxGeometry relative="1" as="geometry"/>
                </mxCell>
                <mxCell id="44" value="Yes" style="edgeLabel;html=1;align=center;verticalAlign=middle;resizable=0;points=[];fontSize=12;" parent="31" vertex="1" connectable="0">
                    <mxGeometry y="-2" relative="1" as="geometry">
                        <mxPoint x="2" y="-5" as="offset"/>
                    </mxGeometry>
                </mxCell>
                <mxCell id="56" style="edgeStyle=orthogonalEdgeStyle;rounded=0;orthogonalLoop=1;jettySize=auto;html=1;entryX=0.5;entryY=0;entryDx=0;entryDy=0;" parent="1" source="10" target="60" edge="1">
                    <mxGeometry relative="1" as="geometry">
                        <mxPoint x="568" y="620" as="targetPoint"/>
                    </mxGeometry>
                </mxCell>
                <mxCell id="57" value="No" style="edgeLabel;html=1;align=center;verticalAlign=middle;resizable=0;points=[];fontSize=12;" parent="56" vertex="1" connectable="0">
                    <mxGeometry x="-0.5395" y="-1" relative="1" as="geometry">
                        <mxPoint x="-11" y="-1" as="offset"/>
                    </mxGeometry>
                </mxCell>
                <mxCell id="10" value="Accepted&lt;br&gt;by user?" style="rhombus;whiteSpace=wrap;html=1;" parent="1" vertex="1">
                    <mxGeometry x="331" y="400" width="110" height="50" as="geometry"/>
                </mxCell>
                <mxCell id="32" style="edgeStyle=orthogonalEdgeStyle;rounded=0;orthogonalLoop=1;jettySize=auto;html=1;exitX=0.5;exitY=1;exitDx=0;exitDy=0;entryX=0.5;entryY=0;entryDx=0;entryDy=0;" parent="1" source="11" target="12" edge="1">
                    <mxGeometry relative="1" as="geometry"/>
                </mxCell>
                <mxCell id="11" value="Re-parse" style="rounded=0;whiteSpace=wrap;html=1;" parent="1" vertex="1">
                    <mxGeometry x="331" y="490" width="110" height="30" as="geometry"/>
                </mxCell>
                <mxCell id="46" style="edgeStyle=orthogonalEdgeStyle;rounded=0;orthogonalLoop=1;jettySize=auto;html=1;exitX=1;exitY=0.5;exitDx=0;exitDy=0;fontSize=12;entryX=0.5;entryY=0;entryDx=0;entryDy=0;" parent="1" source="12" target="60" edge="1">
                    <mxGeometry relative="1" as="geometry">
                        <mxPoint x="568" y="600" as="targetPoint"/>
                        <Array as="points">
                            <mxPoint x="568" y="575"/>
                        </Array>
                    </mxGeometry>
                </mxCell>
                <mxCell id="49" value="&lt;span style=&quot;color: rgba(0 , 0 , 0 , 0) ; font-family: monospace ; font-size: 0px&quot;&gt;%3CmxGraphModel%3E%3Croot%3E%3CmxCell%20id%3D%220%22%2F%3E%3CmxCell%20id%3D%221%22%20parent%3D%220%22%2F%3E%3CmxCell%20id%3D%222%22%20value%3D%22non-verb-centric%22%20style%3D%22edgeLabel%3Bhtml%3D1%3Balign%3Dcenter%3BverticalAlign%3Dmiddle%3Bresizable%3D0%3Bpoints%3D%5B%5D%3BfontSize%3D12%3B%22%20vertex%3D%221%22%20connectable%3D%220%22%20parent%3D%221%22%3E%3CmxGeometry%20x%3D%22363%22%20y%3D%22135%22%20as%3D%22geometry%22%2F%3E%3C%2FmxCell%3E%3C%2Froot%3E%3C%2FmxGraphModel%3&lt;/span&gt;" style="edgeLabel;html=1;align=center;verticalAlign=middle;resizable=0;points=[];fontSize=12;" parent="46" vertex="1" connectable="0">
                    <mxGeometry x="0.2498" y="1" relative="1" as="geometry">
                        <mxPoint x="-34" y="1" as="offset"/>
                    </mxGeometry>
                </mxCell>
                <mxCell id="133" value="not verb-centric" style="edgeLabel;html=1;align=center;verticalAlign=middle;resizable=0;points=[];" parent="46" vertex="1" connectable="0">
                    <mxGeometry x="-0.25" y="-3" relative="1" as="geometry">
                        <mxPoint x="4" y="-4" as="offset"/>
                    </mxGeometry>
                </mxCell>
                <mxCell id="120" style="edgeStyle=orthogonalEdgeStyle;rounded=0;orthogonalLoop=1;jettySize=auto;html=1;fontSize=12;entryX=0.5;entryY=0;entryDx=0;entryDy=0;" parent="1" source="12" target="137" edge="1">
                    <mxGeometry relative="1" as="geometry">
                        <mxPoint x="195" y="754" as="targetPoint"/>
                    </mxGeometry>
                </mxCell>
                <mxCell id="122" value="yes" style="edgeLabel;html=1;align=center;verticalAlign=middle;resizable=0;points=[];fontSize=12;" parent="120" vertex="1" connectable="0">
                    <mxGeometry x="-0.737" y="1" relative="1" as="geometry">
                        <mxPoint x="-8" y="-3" as="offset"/>
                    </mxGeometry>
                </mxCell>
                <mxCell id="12" value="Strong&lt;br&gt;verb-centric?" style="rhombus;whiteSpace=wrap;html=1;" parent="1" vertex="1">
                    <mxGeometry x="331" y="550" width="110" height="50" as="geometry"/>
                </mxCell>
                <mxCell id="75" style="edgeStyle=orthogonalEdgeStyle;rounded=0;orthogonalLoop=1;jettySize=auto;html=1;entryX=0.5;entryY=0;entryDx=0;entryDy=0;fontSize=12;" parent="1" source="14" target="85" edge="1">
                    <mxGeometry relative="1" as="geometry">
                        <Array as="points"/>
                        <mxPoint x="668" y="745" as="targetPoint"/>
                    </mxGeometry>
                </mxCell>
                <mxCell id="127" value="not verb-centric" style="edgeLabel;html=1;align=center;verticalAlign=middle;resizable=0;points=[];fontSize=12;" parent="75" vertex="1" connectable="0">
                    <mxGeometry x="0.0513" y="-2" relative="1" as="geometry">
                        <mxPoint x="2" y="-9" as="offset"/>
                    </mxGeometry>
                </mxCell>
                <mxCell id="123" style="edgeStyle=orthogonalEdgeStyle;rounded=0;orthogonalLoop=1;jettySize=auto;html=1;entryX=0.5;entryY=0;entryDx=0;entryDy=0;fontSize=12;" parent="1" source="14" target="137" edge="1">
                    <mxGeometry relative="1" as="geometry">
                        <mxPoint x="195" y="754" as="targetPoint"/>
                    </mxGeometry>
                </mxCell>
                <mxCell id="124" value="(valid dependecy parse)" style="edgeLabel;html=1;align=center;verticalAlign=middle;resizable=0;points=[];fontSize=12;" parent="123" vertex="1" connectable="0">
                    <mxGeometry x="0.8005" y="-1" relative="1" as="geometry">
                        <mxPoint y="8" as="offset"/>
                    </mxGeometry>
                </mxCell>
                <mxCell id="125" value="yes" style="edgeLabel;html=1;align=center;verticalAlign=middle;resizable=0;points=[];fontSize=12;" parent="123" vertex="1" connectable="0">
                    <mxGeometry x="-0.2021" relative="1" as="geometry">
                        <mxPoint y="-2" as="offset"/>
                    </mxGeometry>
                </mxCell>
                <mxCell id="14" value="Weak&lt;br&gt;verb-centric?" style="rhombus;whiteSpace=wrap;html=1;" parent="1" vertex="1">
                    <mxGeometry x="513" y="675" width="110" height="50" as="geometry"/>
                </mxCell>
                <mxCell id="34" style="edgeStyle=orthogonalEdgeStyle;rounded=0;orthogonalLoop=1;jettySize=auto;html=1;exitX=0.5;exitY=1;exitDx=0;exitDy=0;entryX=0.5;entryY=0;entryDx=0;entryDy=0;" parent="1" source="60" target="14" edge="1">
                    <mxGeometry relative="1" as="geometry">
                        <mxPoint x="568" y="765" as="sourcePoint"/>
                    </mxGeometry>
                </mxCell>
                <mxCell id="60" value="Anchor verb confirmation" style="rounded=0;whiteSpace=wrap;html=1;fontSize=12;" parent="1" vertex="1">
                    <mxGeometry x="513" y="613" width="110" height="30" as="geometry"/>
                </mxCell>
                <mxCell id="86" style="edgeStyle=orthogonalEdgeStyle;rounded=0;orthogonalLoop=1;jettySize=auto;html=1;exitX=1;exitY=0.5;exitDx=0;exitDy=0;" parent="1" source="85" edge="1">
                    <mxGeometry relative="1" as="geometry">
                        <mxPoint x="310" y="40" as="targetPoint"/>
                        <Array as="points">
                            <mxPoint x="650" y="789"/>
                            <mxPoint x="650" y="40"/>
                        </Array>
                    </mxGeometry>
                </mxCell>
                <mxCell id="110" value="(sentence rephrased by user)" style="edgeLabel;html=1;align=center;verticalAlign=middle;resizable=0;points=[];fontSize=12;" parent="86" vertex="1" connectable="0">
                    <mxGeometry x="-0.1641" y="2" relative="1" as="geometry">
                        <mxPoint y="-82" as="offset"/>
                    </mxGeometry>
                </mxCell>
                <mxCell id="85" value="Request rephrasing by user" style="rounded=0;whiteSpace=wrap;html=1;" parent="1" vertex="1">
                    <mxGeometry x="513" y="774" width="110" height="30" as="geometry"/>
                </mxCell>
                <mxCell id="140" value="(final parse)" style="edgeStyle=orthogonalEdgeStyle;rounded=0;orthogonalLoop=1;jettySize=auto;html=1;fontSize=12;exitX=0.5;exitY=1;exitDx=0;exitDy=0;" parent="1" source="137" edge="1">
                    <mxGeometry x="-0.2121" relative="1" as="geometry">
                        <mxPoint x="194.5" y="804" as="sourcePoint"/>
                        <mxPoint x="195" y="870" as="targetPoint"/>
                        <Array as="points"/>
                        <mxPoint as="offset"/>
                    </mxGeometry>
                </mxCell>
                <mxCell id="137" value="Paraparse" style="rounded=0;whiteSpace=wrap;html=1;" parent="1" vertex="1">
                    <mxGeometry x="140" y="774" width="110" height="30" as="geometry"/>
                </mxCell>
                <mxCell id="144" style="edgeStyle=orthogonalEdgeStyle;rounded=0;orthogonalLoop=1;jettySize=auto;html=1;entryX=0.5;entryY=0;entryDx=0;entryDy=0;fontSize=12;" parent="1" target="60" edge="1">
                    <mxGeometry relative="1" as="geometry">
                        <Array as="points"/>
                        <mxPoint x="568" y="600" as="sourcePoint"/>
                        <mxPoint x="564.5" y="610" as="targetPoint"/>
                    </mxGeometry>
                </mxCell>
                <mxCell id="149" value="" style="edgeStyle=orthogonalEdgeStyle;rounded=0;orthogonalLoop=1;jettySize=auto;html=1;fontSize=12;" parent="1" source="146" target="147" edge="1">
                    <mxGeometry x="-0.5" relative="1" as="geometry">
                        <mxPoint as="offset"/>
                    </mxGeometry>
                </mxCell>
                <mxCell id="153" value="yes" style="edgeLabel;html=1;align=center;verticalAlign=middle;resizable=0;points=[];fontSize=12;" parent="149" vertex="1" connectable="0">
                    <mxGeometry x="-0.15" relative="1" as="geometry">
                        <mxPoint y="-3" as="offset"/>
                    </mxGeometry>
                </mxCell>
                <mxCell id="150" style="edgeStyle=orthogonalEdgeStyle;rounded=0;orthogonalLoop=1;jettySize=auto;html=1;entryX=1;entryY=0.5;entryDx=0;entryDy=0;fontSize=12;exitX=1;exitY=0.5;exitDx=0;exitDy=0;" parent="1" source="146" target="3" edge="1">
                    <mxGeometry relative="1" as="geometry">
                        <Array as="points">
                            <mxPoint x="391" y="111"/>
                            <mxPoint x="391" y="245"/>
                        </Array>
                    </mxGeometry>
                </mxCell>
                <mxCell id="151" value="no" style="edgeLabel;html=1;align=center;verticalAlign=middle;resizable=0;points=[];fontSize=12;" parent="150" vertex="1" connectable="0">
                    <mxGeometry x="-0.219" y="1" relative="1" as="geometry">
                        <mxPoint x="-1" y="-7" as="offset"/>
                    </mxGeometry>
                </mxCell>
                <mxCell id="146" value="Has corefereces?" style="rhombus;whiteSpace=wrap;html=1;" parent="1" vertex="1">
                    <mxGeometry x="250" y="86" width="110" height="50" as="geometry"/>
                </mxCell>
                <mxCell id="156" style="edgeStyle=orthogonalEdgeStyle;rounded=0;orthogonalLoop=1;jettySize=auto;html=1;entryX=0.5;entryY=0;entryDx=0;entryDy=0;fontSize=12;" parent="1" source="147" target="3" edge="1">
                    <mxGeometry relative="1" as="geometry"/>
                </mxCell>
                <mxCell id="147" value="Resolve coreferences" style="rounded=0;whiteSpace=wrap;html=1;" parent="1" vertex="1">
                    <mxGeometry x="251" y="170" width="110" height="30" as="geometry"/>
                </mxCell>
                <mxCell id="191" style="edgeStyle=none;rounded=0;html=1;exitX=1;exitY=0.25;exitDx=0;exitDy=0;" parent="1" source="157" edge="1">
                    <mxGeometry relative="1" as="geometry">
                        <mxPoint x="144.5454545454545" y="958.1818181818182" as="sourcePoint"/>
                        <mxPoint x="170" y="958" as="targetPoint"/>
                    </mxGeometry>
                </mxCell>
                <mxCell id="157" value="Input Sentences" style="shape=parallelogram;perimeter=parallelogramPerimeter;whiteSpace=wrap;html=1;fixedSize=1;" parent="1" vertex="1">
                    <mxGeometry x="20" y="950" width="120" height="30" as="geometry"/>
                </mxCell>
                <mxCell id="164" style="edgeStyle=none;html=1;entryX=0.5;entryY=0;entryDx=0;entryDy=0;exitX=0.5;exitY=0;exitDx=0;exitDy=0;rounded=0;" parent="1" source="158" target="160" edge="1">
                    <mxGeometry relative="1" as="geometry">
                        <Array as="points">
                            <mxPoint x="80" y="900"/>
                            <mxPoint x="365" y="900"/>
                        </Array>
                    </mxGeometry>
                </mxCell>
                <mxCell id="158" value="Constructed LVPs" style="shape=parallelogram;perimeter=parallelogramPerimeter;whiteSpace=wrap;html=1;fixedSize=1;" parent="1" vertex="1">
                    <mxGeometry x="20" y="910" width="120" height="30" as="geometry"/>
                </mxCell>
                <mxCell id="166" style="edgeStyle=none;rounded=0;html=1;entryX=0;entryY=0.5;entryDx=0;entryDy=0;" parent="1" source="159" target="160" edge="1">
                    <mxGeometry relative="1" as="geometry"/>
                </mxCell>
                <mxCell id="159" value="Syntactic Parsing with APE" style="rounded=0;whiteSpace=wrap;html=1;" parent="1" vertex="1">
                    <mxGeometry x="170" y="920" width="110" height="50" as="geometry"/>
                </mxCell>
                <mxCell id="167" style="edgeStyle=none;rounded=0;html=1;entryX=0;entryY=0.5;entryDx=0;entryDy=0;" parent="1" source="160" target="161" edge="1">
                    <mxGeometry relative="1" as="geometry"/>
                </mxCell>
                <mxCell id="160" value="Frame-based Parsing" style="rounded=0;whiteSpace=wrap;html=1;" parent="1" vertex="1">
                    <mxGeometry x="310" y="920" width="110" height="50" as="geometry"/>
                </mxCell>
                <mxCell id="168" style="edgeStyle=none;rounded=0;html=1;entryX=0;entryY=0.5;entryDx=0;entryDy=0;" parent="1" source="161" target="162" edge="1">
                    <mxGeometry relative="1" as="geometry"/>
                </mxCell>
                <mxCell id="161" value="Role-filler Disambiguation" style="rounded=0;whiteSpace=wrap;html=1;" parent="1" vertex="1">
                    <mxGeometry x="450" y="920" width="110" height="50" as="geometry"/>
                </mxCell>
                <mxCell id="169" style="edgeStyle=none;rounded=0;html=1;" parent="1" source="162" target="163" edge="1">
                    <mxGeometry relative="1" as="geometry"/>
                </mxCell>
                <mxCell id="162" value="Constructing Logical Representations" style="rounded=0;whiteSpace=wrap;html=1;" parent="1" vertex="1">
                    <mxGeometry x="590" y="920" width="110" height="50" as="geometry"/>
                </mxCell>
                <mxCell id="163" value="Logic Facts" style="shape=parallelogram;perimeter=parallelogramPerimeter;whiteSpace=wrap;html=1;fixedSize=1;" parent="1" vertex="1">
                    <mxGeometry x="730" y="930" width="120" height="30" as="geometry"/>
                </mxCell>
                <mxCell id="171" value="" style="rounded=0;whiteSpace=wrap;html=1;dashed=1;fillColor=none;" parent="1" vertex="1">
                    <mxGeometry x="170" y="1020" width="550" height="80" as="geometry"/>
                </mxCell>
                <mxCell id="172" value="Syntactic Parsing" style="rounded=0;whiteSpace=wrap;html=1;" parent="1" vertex="1">
                    <mxGeometry x="-140" y="920" width="110" height="70" as="geometry"/>
                </mxCell>
                <mxCell id="192" style="edgeStyle=none;rounded=0;html=1;exitX=1;exitY=0.5;exitDx=0;exitDy=0;entryX=0;entryY=0.5;entryDx=0;entryDy=0;" parent="1" source="174" target="188" edge="1">
                    <mxGeometry relative="1" as="geometry"/>
                </mxCell>
                <mxCell id="174" value="Input Sentences" style="shape=parallelogram;perimeter=parallelogramPerimeter;whiteSpace=wrap;html=1;fixedSize=1;" parent="1" vertex="1">
                    <mxGeometry x="-65" y="1050" width="120" height="30" as="geometry"/>
                </mxCell>
                <mxCell id="213" style="edgeStyle=none;rounded=0;html=1;exitX=0;exitY=0.5;exitDx=0;exitDy=0;entryX=1;entryY=0.5;entryDx=0;entryDy=0;" parent="1" source="176" target="178" edge="1">
                    <mxGeometry relative="1" as="geometry"/>
                </mxCell>
                <mxCell id="176" value="Constructed LVPs" style="shape=parallelogram;perimeter=parallelogramPerimeter;whiteSpace=wrap;html=1;fixedSize=1;" parent="1" vertex="1">
                    <mxGeometry x="610" y="1140" width="120" height="30" as="geometry"/>
                </mxCell>
                <mxCell id="177" style="edgeStyle=none;rounded=0;html=1;entryX=1;entryY=0.5;entryDx=0;entryDy=0;" parent="1" source="178" target="180" edge="1">
                    <mxGeometry relative="1" as="geometry"/>
                </mxCell>
                <mxCell id="178" value="Paraparsing" style="rounded=0;whiteSpace=wrap;html=1;" parent="1" vertex="1">
                    <mxGeometry x="510" y="1130" width="90" height="50" as="geometry"/>
                </mxCell>
                <mxCell id="179" style="edgeStyle=none;rounded=0;html=1;entryX=1;entryY=0.5;entryDx=0;entryDy=0;" parent="1" source="180" target="182" edge="1">
                    <mxGeometry relative="1" as="geometry"/>
                </mxCell>
                <mxCell id="180" value="Frame-based Parsing" style="rounded=0;whiteSpace=wrap;html=1;" parent="1" vertex="1">
                    <mxGeometry x="390" y="1130" width="90" height="50" as="geometry"/>
                </mxCell>
                <mxCell id="181" style="edgeStyle=none;rounded=0;html=1;entryX=1;entryY=0.5;entryDx=0;entryDy=0;" parent="1" source="182" target="184" edge="1">
                    <mxGeometry relative="1" as="geometry"/>
                </mxCell>
                <mxCell id="182" value="Role-filler Disambiguation" style="rounded=0;whiteSpace=wrap;html=1;" parent="1" vertex="1">
                    <mxGeometry x="285" y="1130" width="90" height="50" as="geometry"/>
                </mxCell>
                <mxCell id="183" style="edgeStyle=none;rounded=0;html=1;" parent="1" source="184" target="185" edge="1">
                    <mxGeometry relative="1" as="geometry"/>
                </mxCell>
                <mxCell id="184" value="Constructing Logical Representations" style="rounded=0;whiteSpace=wrap;html=1;" parent="1" vertex="1">
                    <mxGeometry x="175" y="1130" width="90" height="50" as="geometry"/>
                </mxCell>
                <mxCell id="185" value="Logic Facts" style="shape=parallelogram;perimeter=parallelogramPerimeter;whiteSpace=wrap;html=1;fixedSize=1;" parent="1" vertex="1">
                    <mxGeometry x="45" y="1140" width="120" height="30" as="geometry"/>
                </mxCell>
                <mxCell id="195" style="edgeStyle=none;html=1;exitX=1;exitY=0.5;exitDx=0;exitDy=0;entryX=0;entryY=0.5;entryDx=0;entryDy=0;" parent="1" source="188" target="194" edge="1">
                    <mxGeometry relative="1" as="geometry"/>
                </mxCell>
                <mxCell id="188" value="Syntactic Parsing with&lt;br&gt;Multi-Stanza" style="rounded=0;whiteSpace=wrap;html=1;" parent="1" vertex="1">
                    <mxGeometry x="70" y="1040" width="90" height="50" as="geometry"/>
                </mxCell>
                <mxCell id="193" value="Syntactic Parsing" style="rounded=0;whiteSpace=wrap;html=1;" parent="1" vertex="1">
                    <mxGeometry x="1130" y="940" width="110" height="70" as="geometry"/>
                </mxCell>
                <mxCell id="206" style="edgeStyle=none;rounded=0;html=1;entryX=0.5;entryY=0;entryDx=0;entryDy=0;exitX=0.5;exitY=1;exitDx=0;exitDy=0;" parent="1" source="194" target="178" edge="1">
                    <mxGeometry relative="1" as="geometry">
                        <Array as="points">
                            <mxPoint x="225" y="1110"/>
                            <mxPoint x="555" y="1110"/>
                        </Array>
                    </mxGeometry>
                </mxCell>
                <mxCell id="207" style="edgeStyle=none;rounded=0;html=1;exitX=1;exitY=0.5;exitDx=0;exitDy=0;entryX=0;entryY=0.5;entryDx=0;entryDy=0;" parent="1" source="194" target="197" edge="1">
                    <mxGeometry relative="1" as="geometry"/>
                </mxCell>
                <mxCell id="194" value="Is parse0&lt;br&gt;valid?" style="rhombus;whiteSpace=wrap;html=1;" parent="1" vertex="1">
                    <mxGeometry x="180" y="1040" width="90" height="50" as="geometry"/>
                </mxCell>
                <mxCell id="208" style="edgeStyle=none;rounded=0;html=1;exitX=1;exitY=0.5;exitDx=0;exitDy=0;entryX=0;entryY=0.5;entryDx=0;entryDy=0;" parent="1" source="197" target="200" edge="1">
                    <mxGeometry relative="1" as="geometry"/>
                </mxCell>
                <mxCell id="197" value="POS Tagging Error Detection and Correction" style="rounded=0;whiteSpace=wrap;html=1;" parent="1" vertex="1">
                    <mxGeometry x="290" y="1040" width="90" height="50" as="geometry"/>
                </mxCell>
                <mxCell id="201" value="" style="edgeStyle=none;rounded=0;html=1;exitX=1;exitY=0.5;exitDx=0;exitDy=0;entryX=0;entryY=0.5;entryDx=0;entryDy=0;" parent="1" source="199" target="203" edge="1">
                    <mxGeometry relative="1" as="geometry"/>
                </mxCell>
                <mxCell id="205" style="edgeStyle=none;rounded=0;html=1;entryX=0.5;entryY=0;entryDx=0;entryDy=0;exitX=0.5;exitY=1;exitDx=0;exitDy=0;" parent="1" source="199" target="178" edge="1">
                    <mxGeometry relative="1" as="geometry">
                        <Array as="points"/>
                    </mxGeometry>
                </mxCell>
                <mxCell id="199" value="Is there valid parse?" style="rhombus;whiteSpace=wrap;html=1;" parent="1" vertex="1">
                    <mxGeometry x="510" y="1040" width="90" height="50" as="geometry"/>
                </mxCell>
                <mxCell id="209" style="edgeStyle=none;rounded=0;html=1;exitX=1;exitY=0.5;exitDx=0;exitDy=0;entryX=0;entryY=0.5;entryDx=0;entryDy=0;" parent="1" source="200" target="199" edge="1">
                    <mxGeometry relative="1" as="geometry"/>
                </mxCell>
                <mxCell id="200" value="Re-parsing with New POS Tags" style="rounded=0;whiteSpace=wrap;html=1;" parent="1" vertex="1">
                    <mxGeometry x="400" y="1040" width="90" height="50" as="geometry"/>
                </mxCell>
                <mxCell id="204" style="edgeStyle=none;rounded=0;html=1;entryX=0.5;entryY=0;entryDx=0;entryDy=0;exitX=0.5;exitY=1;exitDx=0;exitDy=0;" parent="1" source="203" target="178" edge="1">
                    <mxGeometry relative="1" as="geometry">
                        <mxPoint x="645" y="1130" as="targetPoint"/>
                        <Array as="points">
                            <mxPoint x="665" y="1110"/>
                            <mxPoint x="555" y="1110"/>
                        </Array>
                    </mxGeometry>
                </mxCell>
                <mxCell id="203" value="Prompt&lt;br&gt;Warning" style="rounded=0;whiteSpace=wrap;html=1;" parent="1" vertex="1">
                    <mxGeometry x="620" y="1040" width="90" height="50" as="geometry"/>
                </mxCell>
                <mxCell id="214" value="Error Detection and Correction" style="text;html=1;strokeColor=none;fillColor=none;align=center;verticalAlign=middle;whiteSpace=wrap;rounded=0;dashed=1;" parent="1" vertex="1">
                    <mxGeometry x="170" y="1019" width="170" height="17" as="geometry"/>
                </mxCell>
                <mxCell id="215" value="N" style="text;html=1;strokeColor=none;fillColor=none;align=center;verticalAlign=middle;whiteSpace=wrap;rounded=0;dashed=1;" parent="1" vertex="1">
                    <mxGeometry x="260" y="1046" width="30" height="20" as="geometry"/>
                </mxCell>
                <mxCell id="216" value="Text" style="text;html=1;strokeColor=none;fillColor=none;align=center;verticalAlign=middle;whiteSpace=wrap;rounded=0;dashed=1;" parent="1" vertex="1">
                    <mxGeometry x="395" y="2390" width="60" height="30" as="geometry"/>
                </mxCell>
                <mxCell id="218" value="Y" style="text;html=1;strokeColor=none;fillColor=none;align=center;verticalAlign=middle;whiteSpace=wrap;rounded=0;dashed=1;" parent="1" vertex="1">
                    <mxGeometry x="216" y="1089" width="30" height="20" as="geometry"/>
                </mxCell>
                <mxCell id="219" value="N" style="text;html=1;strokeColor=none;fillColor=none;align=center;verticalAlign=middle;whiteSpace=wrap;rounded=0;dashed=1;" parent="1" vertex="1">
                    <mxGeometry x="591" y="1047" width="30" height="20" as="geometry"/>
                </mxCell>
                <mxCell id="220" value="Y" style="text;html=1;strokeColor=none;fillColor=none;align=center;verticalAlign=middle;whiteSpace=wrap;rounded=0;dashed=1;" parent="1" vertex="1">
                    <mxGeometry x="535" y="1089" width="30" height="20" as="geometry"/>
                </mxCell>
                <mxCell id="288" style="edgeStyle=none;rounded=0;html=1;exitX=1;exitY=0.5;exitDx=0;exitDy=0;entryX=0;entryY=0.5;entryDx=0;entryDy=0;" parent="1" source="289" target="302" edge="1">
                    <mxGeometry relative="1" as="geometry"/>
                </mxCell>
                <mxCell id="289" value="Input Document" style="shape=parallelogram;perimeter=parallelogramPerimeter;whiteSpace=wrap;html=1;fixedSize=1;" parent="1" vertex="1">
                    <mxGeometry x="-10" y="1251" width="120" height="30" as="geometry"/>
                </mxCell>
                <mxCell id="290" style="edgeStyle=none;rounded=0;html=1;exitX=0;exitY=0.5;exitDx=0;exitDy=0;entryX=1;entryY=0.5;entryDx=0;entryDy=0;" parent="1" source="291" target="293" edge="1">
                    <mxGeometry relative="1" as="geometry"/>
                </mxCell>
                <mxCell id="291" value="Constructed LVPs" style="shape=parallelogram;perimeter=parallelogramPerimeter;whiteSpace=wrap;html=1;fixedSize=1;" parent="1" vertex="1">
                    <mxGeometry x="665" y="1341" width="120" height="30" as="geometry"/>
                </mxCell>
                <mxCell id="292" style="edgeStyle=none;rounded=0;html=1;entryX=1;entryY=0.5;entryDx=0;entryDy=0;" parent="1" source="293" target="295" edge="1">
                    <mxGeometry relative="1" as="geometry"/>
                </mxCell>
                <mxCell id="293" value="Paraparsing" style="rounded=0;whiteSpace=wrap;html=1;" parent="1" vertex="1">
                    <mxGeometry x="565" y="1331" width="90" height="50" as="geometry"/>
                </mxCell>
                <mxCell id="294" style="edgeStyle=none;rounded=0;html=1;entryX=1;entryY=0.5;entryDx=0;entryDy=0;" parent="1" source="295" target="297" edge="1">
                    <mxGeometry relative="1" as="geometry"/>
                </mxCell>
                <mxCell id="295" value="Frame-based Parsing" style="rounded=0;whiteSpace=wrap;html=1;" parent="1" vertex="1">
                    <mxGeometry x="445" y="1331" width="90" height="50" as="geometry"/>
                </mxCell>
                <mxCell id="296" style="edgeStyle=none;rounded=0;html=1;entryX=1;entryY=0.5;entryDx=0;entryDy=0;" parent="1" source="297" target="299" edge="1">
                    <mxGeometry relative="1" as="geometry"/>
                </mxCell>
                <mxCell id="297" value="Role-filler Disambiguation" style="rounded=0;whiteSpace=wrap;html=1;" parent="1" vertex="1">
                    <mxGeometry x="340" y="1331" width="90" height="50" as="geometry"/>
                </mxCell>
                <mxCell id="298" style="edgeStyle=none;rounded=0;html=1;" parent="1" source="299" target="300" edge="1">
                    <mxGeometry relative="1" as="geometry"/>
                </mxCell>
                <mxCell id="299" value="Constructing Logical Representations" style="rounded=0;whiteSpace=wrap;html=1;" parent="1" vertex="1">
                    <mxGeometry x="230" y="1331" width="90" height="50" as="geometry"/>
                </mxCell>
                <mxCell id="300" value="Logic Facts" style="shape=parallelogram;perimeter=parallelogramPerimeter;whiteSpace=wrap;html=1;fixedSize=1;" parent="1" vertex="1">
                    <mxGeometry x="100" y="1341" width="120" height="30" as="geometry"/>
                </mxCell>
                <mxCell id="301" style="edgeStyle=none;html=1;exitX=1;exitY=0.5;exitDx=0;exitDy=0;entryX=0;entryY=0.5;entryDx=0;entryDy=0;" parent="1" source="302" edge="1">
                    <mxGeometry relative="1" as="geometry">
                        <mxPoint x="235" y="1266" as="targetPoint"/>
                    </mxGeometry>
                </mxCell>
                <mxCell id="302" value="Tokenization" style="rounded=0;whiteSpace=wrap;html=1;" parent="1" vertex="1">
                    <mxGeometry x="125" y="1241" width="90" height="50" as="geometry"/>
                </mxCell>
                <mxCell id="304" style="edgeStyle=none;rounded=0;html=1;exitX=1;exitY=0.5;exitDx=0;exitDy=0;entryX=0;entryY=0.5;entryDx=0;entryDy=0;" parent="1" edge="1">
                    <mxGeometry relative="1" as="geometry">
                        <mxPoint x="325" y="1266" as="sourcePoint"/>
                        <mxPoint x="345" y="1266" as="targetPoint"/>
                    </mxGeometry>
                </mxCell>
                <mxCell id="306" style="edgeStyle=none;rounded=0;html=1;exitX=1;exitY=0.5;exitDx=0;exitDy=0;entryX=0;entryY=0.5;entryDx=0;entryDy=0;" parent="1" target="312" edge="1">
                    <mxGeometry relative="1" as="geometry">
                        <mxPoint x="435" y="1266" as="sourcePoint"/>
                    </mxGeometry>
                </mxCell>
                <mxCell id="308" value="" style="edgeStyle=none;rounded=0;html=1;exitX=1;exitY=0.5;exitDx=0;exitDy=0;entryX=0;entryY=0.5;entryDx=0;entryDy=0;" parent="1" target="314" edge="1">
                    <mxGeometry relative="1" as="geometry">
                        <mxPoint x="655" y="1266" as="sourcePoint"/>
                    </mxGeometry>
                </mxCell>
                <mxCell id="311" style="edgeStyle=none;rounded=0;html=1;exitX=1;exitY=0.5;exitDx=0;exitDy=0;entryX=0;entryY=0.5;entryDx=0;entryDy=0;" parent="1" source="312" edge="1">
                    <mxGeometry relative="1" as="geometry">
                        <mxPoint x="565" y="1266" as="targetPoint"/>
                    </mxGeometry>
                </mxCell>
                <mxCell id="312" value="Sentiment Analysis" style="rounded=0;whiteSpace=wrap;html=1;" parent="1" vertex="1">
                    <mxGeometry x="455" y="1241" width="90" height="50" as="geometry"/>
                </mxCell>
                <mxCell id="325" style="edgeStyle=none;html=1;entryX=0;entryY=0.5;entryDx=0;entryDy=0;" parent="1" source="314" target="324" edge="1">
                    <mxGeometry relative="1" as="geometry"/>
                </mxCell>
                <mxCell id="314" value="Dependency Parsing" style="rounded=0;whiteSpace=wrap;html=1;" parent="1" vertex="1">
                    <mxGeometry x="675" y="1241" width="90" height="50" as="geometry"/>
                </mxCell>
                <mxCell id="320" value="POS Tagging" style="rounded=0;whiteSpace=wrap;html=1;" parent="1" vertex="1">
                    <mxGeometry x="235" y="1240" width="90" height="50" as="geometry"/>
                </mxCell>
                <mxCell id="321" value="Lemmatization" style="rounded=0;whiteSpace=wrap;html=1;" parent="1" vertex="1">
                    <mxGeometry x="346" y="1240" width="90" height="50" as="geometry"/>
                </mxCell>
                <mxCell id="323" value="Named Entity Recognition" style="rounded=0;whiteSpace=wrap;html=1;" parent="1" vertex="1">
                    <mxGeometry x="565" y="1240" width="90" height="50" as="geometry"/>
                </mxCell>
                <mxCell id="324" value="k-Best Labeled Document" style="shape=parallelogram;perimeter=parallelogramPerimeter;whiteSpace=wrap;html=1;fixedSize=1;" parent="1" vertex="1">
                    <mxGeometry x="780" y="1251" width="120" height="30" as="geometry"/>
                </mxCell>
                <mxCell id="326" style="rounded=0;html=1;endArrow=none;endFill=0;startArrow=classic;startFill=1;" parent="1" edge="1">
                    <mxGeometry relative="1" as="geometry">
                        <mxPoint x="510" y="1560" as="sourcePoint"/>
                        <mxPoint x="240" y="1560" as="targetPoint"/>
                    </mxGeometry>
                </mxCell>
                <mxCell id="327" style="rounded=0;html=1;endArrow=none;endFill=0;" parent="1" edge="1">
                    <mxGeometry relative="1" as="geometry">
                        <mxPoint x="280" y="1570" as="sourcePoint"/>
                        <mxPoint x="280" y="1550" as="targetPoint"/>
                    </mxGeometry>
                </mxCell>
                <mxCell id="328" style="rounded=0;html=1;endArrow=none;endFill=0;" parent="1" edge="1">
                    <mxGeometry relative="1" as="geometry">
                        <mxPoint x="360" y="1570" as="sourcePoint"/>
                        <mxPoint x="360" y="1550" as="targetPoint"/>
                    </mxGeometry>
                </mxCell>
                <mxCell id="329" style="rounded=0;html=1;endArrow=none;endFill=0;" parent="1" edge="1">
                    <mxGeometry relative="1" as="geometry">
                        <mxPoint x="440" y="1570" as="sourcePoint"/>
                        <mxPoint x="440" y="1550" as="targetPoint"/>
                    </mxGeometry>
                </mxCell>
                <mxCell id="331" value="" style="ellipse;whiteSpace=wrap;html=1;aspect=fixed;fillStyle=solid;fillColor=#000000;" parent="1" vertex="1">
                    <mxGeometry x="355" y="1520" width="10" height="10" as="geometry"/>
                </mxCell>
                <mxCell id="336" value="" style="ellipse;whiteSpace=wrap;html=1;aspect=fixed;fillStyle=solid;fillColor=#000000;" parent="1" vertex="1">
                    <mxGeometry x="355" y="1470" width="10" height="10" as="geometry"/>
                </mxCell>
                <mxCell id="356" style="edgeStyle=none;html=1;entryX=0;entryY=0.5;entryDx=0;entryDy=0;dashed=1;startArrow=none;startFill=0;endArrow=classicThin;endFill=1;" parent="1" source="337" target="341" edge="1">
                    <mxGeometry relative="1" as="geometry"/>
                </mxCell>
                <mxCell id="337" value="" style="ellipse;whiteSpace=wrap;html=1;aspect=fixed;fillStyle=solid;fillColor=#000000;" parent="1" vertex="1">
                    <mxGeometry x="275" y="1420" width="10" height="10" as="geometry"/>
                </mxCell>
                <mxCell id="339" value="" style="ellipse;whiteSpace=wrap;html=1;aspect=fixed;fillColor=none;" parent="1" vertex="1">
                    <mxGeometry x="435" y="1470" width="10" height="10" as="geometry"/>
                </mxCell>
                <mxCell id="340" value="" style="ellipse;whiteSpace=wrap;html=1;aspect=fixed;fillColor=none;" parent="1" vertex="1">
                    <mxGeometry x="435" y="1520" width="10" height="10" as="geometry"/>
                </mxCell>
                <mxCell id="341" value="" style="ellipse;whiteSpace=wrap;html=1;aspect=fixed;fillColor=none;" parent="1" vertex="1">
                    <mxGeometry x="355" y="1420" width="10" height="10" as="geometry"/>
                </mxCell>
                <mxCell id="342" value="" style="ellipse;whiteSpace=wrap;html=1;aspect=fixed;fillColor=none;" parent="1" vertex="1">
                    <mxGeometry x="435" y="1420" width="10" height="10" as="geometry"/>
                </mxCell>
                <mxCell id="343" value="1" style="text;html=1;strokeColor=none;fillColor=none;align=center;verticalAlign=middle;whiteSpace=wrap;rounded=0;dashed=1;" parent="1" vertex="1">
                    <mxGeometry x="260" y="1570" width="40" height="20" as="geometry"/>
                </mxCell>
                <mxCell id="344" value="2" style="text;html=1;strokeColor=none;fillColor=none;align=center;verticalAlign=middle;whiteSpace=wrap;rounded=0;dashed=1;" parent="1" vertex="1">
                    <mxGeometry x="340" y="1570" width="40" height="20" as="geometry"/>
                </mxCell>
                <mxCell id="345" value="3" style="text;html=1;strokeColor=none;fillColor=none;align=center;verticalAlign=middle;whiteSpace=wrap;rounded=0;dashed=1;" parent="1" vertex="1">
                    <mxGeometry x="420" y="1570" width="40" height="20" as="geometry"/>
                </mxCell>
                <mxCell id="346" value="timestamp" style="text;html=1;strokeColor=none;fillColor=none;align=center;verticalAlign=middle;whiteSpace=wrap;rounded=0;dashed=1;fontSize=14;" parent="1" vertex="1">
                    <mxGeometry x="213" y="1560" width="40" height="20" as="geometry"/>
                </mxCell>
                <mxCell id="347" value="E&lt;sub&gt;1&lt;/sub&gt;" style="text;html=1;strokeColor=none;fillColor=none;align=center;verticalAlign=middle;whiteSpace=wrap;rounded=0;dashed=1;" parent="1" vertex="1">
                    <mxGeometry x="260" y="1400" width="40" height="20" as="geometry"/>
                </mxCell>
                <mxCell id="348" value="E&lt;sub&gt;2&lt;/sub&gt;" style="text;html=1;strokeColor=none;fillColor=none;align=center;verticalAlign=middle;whiteSpace=wrap;rounded=0;dashed=1;" parent="1" vertex="1">
                    <mxGeometry x="340" y="1450" width="40" height="20" as="geometry"/>
                </mxCell>
                <mxCell id="349" value="E&lt;sub&gt;2&lt;/sub&gt;" style="text;html=1;strokeColor=none;fillColor=none;align=center;verticalAlign=middle;whiteSpace=wrap;rounded=0;dashed=1;" parent="1" vertex="1">
                    <mxGeometry x="340" y="1500" width="40" height="20" as="geometry"/>
                </mxCell>
                <mxCell id="350" value="F&lt;sub&gt;1&lt;/sub&gt;" style="text;html=1;strokeColor=none;fillColor=none;align=center;verticalAlign=middle;whiteSpace=wrap;rounded=0;dashed=1;" parent="1" vertex="1">
                    <mxGeometry x="340" y="1400" width="40" height="20" as="geometry"/>
                </mxCell>
                <mxCell id="351" value="F&lt;sub&gt;2&lt;/sub&gt;" style="text;html=1;strokeColor=none;fillColor=none;align=center;verticalAlign=middle;whiteSpace=wrap;rounded=0;dashed=1;" parent="1" vertex="1">
                    <mxGeometry x="420" y="1400" width="40" height="20" as="geometry"/>
                </mxCell>
                <mxCell id="352" value="F&lt;sub&gt;3&lt;/sub&gt;" style="text;html=1;strokeColor=none;fillColor=none;align=center;verticalAlign=middle;whiteSpace=wrap;rounded=0;dashed=1;" parent="1" vertex="1">
                    <mxGeometry x="421" y="1450" width="40" height="20" as="geometry"/>
                </mxCell>
                <mxCell id="353" value="F&lt;sub&gt;4&lt;/sub&gt;" style="text;html=1;strokeColor=none;fillColor=none;align=center;verticalAlign=middle;whiteSpace=wrap;rounded=0;dashed=1;" parent="1" vertex="1">
                    <mxGeometry x="420" y="1500" width="40" height="20" as="geometry"/>
                </mxCell>
                <mxCell id="357" style="edgeStyle=none;html=1;entryX=0;entryY=0.5;entryDx=0;entryDy=0;dashed=1;startArrow=none;startFill=0;endArrow=classicThin;endFill=1;exitX=1;exitY=0.5;exitDx=0;exitDy=0;" parent="1" source="341" target="342" edge="1">
                    <mxGeometry relative="1" as="geometry">
                        <mxPoint x="295" y="1435" as="sourcePoint"/>
                        <mxPoint x="365" y="1435" as="targetPoint"/>
                    </mxGeometry>
                </mxCell>
                <mxCell id="358" style="edgeStyle=none;html=1;entryX=0;entryY=0.5;entryDx=0;entryDy=0;dashed=1;startArrow=none;startFill=0;endArrow=classicThin;endFill=1;exitX=1;exitY=0.5;exitDx=0;exitDy=0;" parent="1" edge="1">
                    <mxGeometry relative="1" as="geometry">
                        <mxPoint x="366" y="1474.8" as="sourcePoint"/>
                        <mxPoint x="436" y="1474.8" as="targetPoint"/>
                    </mxGeometry>
                </mxCell>
                <mxCell id="359" style="edgeStyle=none;html=1;entryX=0;entryY=0.5;entryDx=0;entryDy=0;dashed=1;startArrow=none;startFill=0;endArrow=classicThin;endFill=1;exitX=1;exitY=0.5;exitDx=0;exitDy=0;" parent="1" edge="1">
                    <mxGeometry relative="1" as="geometry">
                        <mxPoint x="366" y="1524.8" as="sourcePoint"/>
                        <mxPoint x="436" y="1524.8" as="targetPoint"/>
                    </mxGeometry>
                </mxCell>
                <mxCell id="360" value="initiates" style="text;html=1;strokeColor=none;fillColor=none;align=center;verticalAlign=middle;whiteSpace=wrap;rounded=0;dashed=1;fontSize=11;fontStyle=2" parent="1" vertex="1">
                    <mxGeometry x="300" y="1406" width="40" height="20" as="geometry"/>
                </mxCell>
                <mxCell id="362" value="initiates" style="text;html=1;strokeColor=none;fillColor=none;align=center;verticalAlign=middle;whiteSpace=wrap;rounded=0;dashed=1;fontSize=11;fontStyle=2" parent="1" vertex="1">
                    <mxGeometry x="380" y="1455" width="40" height="20" as="geometry"/>
                </mxCell>
                <mxCell id="363" value="initiates" style="text;html=1;strokeColor=none;fillColor=none;align=center;verticalAlign=middle;whiteSpace=wrap;rounded=0;dashed=1;fontSize=11;fontStyle=2" parent="1" vertex="1">
                    <mxGeometry x="380" y="1505" width="40" height="20" as="geometry"/>
                </mxCell>
                <mxCell id="364" value="Reci-pient" style="ellipse;whiteSpace=wrap;html=1;aspect=fixed;fillColor=none;strokeWidth=2;" parent="1" vertex="1">
                    <mxGeometry x="345" y="1744" width="40" height="40" as="geometry"/>
                </mxCell>
                <mxCell id="365" value="friend&lt;sub&gt;1&lt;/sub&gt;" style="ellipse;whiteSpace=wrap;html=1;aspect=fixed;fillColor=none;strokeWidth=2;" parent="1" vertex="1">
                    <mxGeometry x="505" y="1654" width="40" height="40" as="geometry"/>
                </mxCell>
                <mxCell id="366" value="friend&lt;sub&gt;2&lt;/sub&gt;" style="ellipse;whiteSpace=wrap;html=1;aspect=fixed;fillColor=none;strokeWidth=2;" parent="1" vertex="1">
                    <mxGeometry x="505" y="1714" width="40" height="40" as="geometry"/>
                </mxCell>
                <mxCell id="368" value="friend&lt;sub&gt;c&lt;/sub&gt;" style="ellipse;whiteSpace=wrap;html=1;aspect=fixed;fillColor=none;perimeterSpacing=0;strokeWidth=2;" parent="1" vertex="1">
                    <mxGeometry x="505" y="1834" width="40" height="40" as="geometry"/>
                </mxCell>
                <mxCell id="369" style="edgeStyle=none;html=1;dashed=1;startArrow=classicThin;startFill=1;endArrow=classicThin;endFill=1;dashPattern=1 4;strokeWidth=2;" parent="1" edge="1">
                    <mxGeometry relative="1" as="geometry">
                        <mxPoint x="395" y="1744" as="sourcePoint"/>
                        <mxPoint x="495" y="1684" as="targetPoint"/>
                    </mxGeometry>
                </mxCell>
                <mxCell id="400" value="path&lt;sub&gt;1&lt;/sub&gt;" style="edgeLabel;html=1;align=center;verticalAlign=middle;resizable=0;points=[];" parent="369" vertex="1" connectable="0">
                    <mxGeometry x="0.1779" y="1" relative="1" as="geometry">
                        <mxPoint x="-9" y="6" as="offset"/>
                    </mxGeometry>
                </mxCell>
                <mxCell id="370" style="edgeStyle=none;html=1;dashed=1;startArrow=classicThin;startFill=1;endArrow=classicThin;endFill=1;dashPattern=1 4;strokeWidth=2;" parent="1" edge="1">
                    <mxGeometry relative="1" as="geometry">
                        <mxPoint x="395" y="1764" as="sourcePoint"/>
                        <mxPoint x="495" y="1744" as="targetPoint"/>
                    </mxGeometry>
                </mxCell>
                <mxCell id="401" value="path&lt;sub&gt;2&lt;/sub&gt;" style="edgeLabel;html=1;align=center;verticalAlign=middle;resizable=0;points=[];" parent="370" vertex="1" connectable="0">
                    <mxGeometry x="-0.0058" y="1" relative="1" as="geometry">
                        <mxPoint as="offset"/>
                    </mxGeometry>
                </mxCell>
                <mxCell id="371" style="edgeStyle=none;html=1;dashed=1;startArrow=classicThin;startFill=1;endArrow=classicThin;endFill=1;dashPattern=1 4;strokeWidth=2;" parent="1" edge="1">
                    <mxGeometry relative="1" as="geometry">
                        <mxPoint x="395" y="1784" as="sourcePoint"/>
                        <mxPoint x="495" y="1844" as="targetPoint"/>
                    </mxGeometry>
                </mxCell>
                <mxCell id="402" value="path&lt;sub&gt;c&lt;/sub&gt;" style="edgeLabel;html=1;align=center;verticalAlign=middle;resizable=0;points=[];" parent="371" vertex="1" connectable="0">
                    <mxGeometry x="-0.0544" relative="1" as="geometry">
                        <mxPoint x="3" as="offset"/>
                    </mxGeometry>
                </mxCell>
                <mxCell id="373" style="edgeStyle=none;html=1;dashed=1;startArrow=none;startFill=0;endArrow=none;endFill=0;dashPattern=1 4;strokeWidth=3;" parent="1" edge="1">
                    <mxGeometry relative="1" as="geometry">
                        <mxPoint x="525" y="1769" as="sourcePoint"/>
                        <mxPoint x="525" y="1829" as="targetPoint"/>
                    </mxGeometry>
                </mxCell>
                <mxCell id="375" value="&lt;b style=&quot;font-size: 11px;&quot;&gt;bn:00066495n:&lt;/b&gt;&amp;nbsp;&lt;br style=&quot;font-size: 11px;&quot;&gt;A person who receives something" style="text;html=1;strokeColor=none;fillColor=none;align=left;verticalAlign=middle;whiteSpace=wrap;rounded=0;fontSize=11;" parent="1" vertex="1">
                    <mxGeometry x="286" y="1680" width="105" height="60" as="geometry"/>
                </mxCell>
                <mxCell id="376" value="&lt;b style=&quot;font-size: 11px;&quot;&gt;bn:00036538n:&lt;/b&gt;&amp;nbsp;&lt;br style=&quot;font-size: 11px;&quot;&gt;A person you know well and regard with affection and trust" style="text;html=1;strokeColor=none;fillColor=none;align=left;verticalAlign=middle;whiteSpace=wrap;rounded=0;fontSize=11;" parent="1" vertex="1">
                    <mxGeometry x="556" y="1620" width="105" height="60" as="geometry"/>
                </mxCell>
                <mxCell id="377" value="&lt;b style=&quot;font-size: 11px;&quot;&gt;bn:00002956n:&lt;/b&gt;&amp;nbsp;&lt;br style=&quot;font-size: 11px;&quot;&gt;An associate who provides cooperation or assistance" style="text;html=1;strokeColor=none;fillColor=none;align=left;verticalAlign=middle;whiteSpace=wrap;rounded=0;fontSize=11;" parent="1" vertex="1">
                    <mxGeometry x="556" y="1704" width="110" height="60" as="geometry"/>
                </mxCell>
                <mxCell id="378" value="&lt;b&gt;bn:01806194n&lt;/b&gt;&lt;b style=&quot;font-size: 11px;&quot;&gt;:&lt;/b&gt;&amp;nbsp;&lt;br style=&quot;font-size: 11px;&quot;&gt;Friend is a surname" style="text;html=1;strokeColor=none;fillColor=none;align=left;verticalAlign=middle;whiteSpace=wrap;rounded=0;fontSize=11;" parent="1" vertex="1">
                    <mxGeometry x="556" y="1834" width="110" height="50" as="geometry"/>
                </mxCell>
                <mxCell id="379" value="Mary" style="ellipse;whiteSpace=wrap;html=1;aspect=fixed;fillColor=none;fontStyle=1;fontSize=13;strokeWidth=2;" parent="1" vertex="1">
                    <mxGeometry x="200" y="1960" width="40" height="40" as="geometry"/>
                </mxCell>
                <mxCell id="380" value="buys" style="ellipse;whiteSpace=wrap;html=1;aspect=fixed;fillColor=none;fontStyle=1;strokeWidth=2;" parent="1" vertex="1">
                    <mxGeometry x="280" y="1960" width="40" height="40" as="geometry"/>
                </mxCell>
                <mxCell id="381" value="a" style="ellipse;whiteSpace=wrap;html=1;aspect=fixed;fillColor=none;fontStyle=1;fontSize=13;strokeWidth=2;" parent="1" vertex="1">
                    <mxGeometry x="360" y="1960" width="40" height="40" as="geometry"/>
                </mxCell>
                <mxCell id="382" value="car" style="ellipse;whiteSpace=wrap;html=1;aspect=fixed;fillColor=none;fontStyle=1;fontSize=13;strokeWidth=2;" parent="1" vertex="1">
                    <mxGeometry x="440" y="1960" width="40" height="40" as="geometry"/>
                </mxCell>
                <mxCell id="383" value="for" style="ellipse;whiteSpace=wrap;html=1;aspect=fixed;fillColor=none;fontStyle=1;fontSize=13;strokeWidth=2;" parent="1" vertex="1">
                    <mxGeometry x="520" y="1960" width="40" height="40" as="geometry"/>
                </mxCell>
                <mxCell id="384" value="Bob" style="ellipse;whiteSpace=wrap;html=1;aspect=fixed;fillColor=none;fontStyle=1;fontSize=13;strokeWidth=2;" parent="1" vertex="1">
                    <mxGeometry x="600" y="1960" width="40" height="40" as="geometry"/>
                </mxCell>
                <mxCell id="387" value="" style="curved=1;endArrow=none;html=1;strokeWidth=2;fontSize=11;exitX=0.5;exitY=0;exitDx=0;exitDy=0;entryX=0.5;entryY=0;entryDx=0;entryDy=0;endFill=0;startArrow=classicThin;startFill=1;" parent="1" source="379" target="380" edge="1">
                    <mxGeometry width="50" height="50" relative="1" as="geometry">
                        <mxPoint x="440" y="1970" as="sourcePoint"/>
                        <mxPoint x="490" y="1920" as="targetPoint"/>
                        <Array as="points">
                            <mxPoint x="260" y="1920"/>
                        </Array>
                    </mxGeometry>
                </mxCell>
                <mxCell id="391" value="subject" style="edgeLabel;html=1;align=center;verticalAlign=middle;resizable=0;points=[];fontSize=13;" parent="387" vertex="1" connectable="0">
                    <mxGeometry x="0.3262" y="-13" relative="1" as="geometry">
                        <mxPoint x="-4" y="-2" as="offset"/>
                    </mxGeometry>
                </mxCell>
                <mxCell id="388" value="" style="curved=1;endArrow=none;html=1;strokeWidth=2;fontSize=11;exitX=0.5;exitY=0;exitDx=0;exitDy=0;endFill=0;startArrow=classicThin;startFill=1;" parent="1" source="382" edge="1">
                    <mxGeometry width="50" height="50" relative="1" as="geometry">
                        <mxPoint x="230" y="1970" as="sourcePoint"/>
                        <mxPoint x="300" y="1960" as="targetPoint"/>
                        <Array as="points">
                            <mxPoint x="380" y="1930"/>
                        </Array>
                    </mxGeometry>
                </mxCell>
                <mxCell id="392" value="object" style="edgeLabel;html=1;align=center;verticalAlign=middle;resizable=0;points=[];fontSize=13;" parent="388" vertex="1" connectable="0">
                    <mxGeometry x="0.1093" y="14" relative="1" as="geometry">
                        <mxPoint x="4" y="-3" as="offset"/>
                    </mxGeometry>
                </mxCell>
                <mxCell id="389" value="" style="curved=1;endArrow=none;html=1;strokeWidth=2;fontSize=11;exitX=0.5;exitY=0;exitDx=0;exitDy=0;endFill=0;startArrow=classicThin;startFill=1;entryX=0.5;entryY=0;entryDx=0;entryDy=0;" parent="1" source="383" target="380" edge="1">
                    <mxGeometry width="50" height="50" relative="1" as="geometry">
                        <mxPoint x="470" y="1970" as="sourcePoint"/>
                        <mxPoint x="310" y="1970" as="targetPoint"/>
                        <Array as="points">
                            <mxPoint x="420" y="1880"/>
                        </Array>
                    </mxGeometry>
                </mxCell>
                <mxCell id="393" value="pp" style="edgeLabel;html=1;align=center;verticalAlign=middle;resizable=0;points=[];fontSize=13;" parent="389" vertex="1" connectable="0">
                    <mxGeometry x="0.1489" y="32" relative="1" as="geometry">
                        <mxPoint y="-2" as="offset"/>
                    </mxGeometry>
                </mxCell>
                <mxCell id="390" value="" style="curved=1;endArrow=none;html=1;strokeWidth=2;fontSize=11;exitX=0.5;exitY=0;exitDx=0;exitDy=0;endFill=0;startArrow=classicThin;startFill=1;entryX=0.5;entryY=0;entryDx=0;entryDy=0;" parent="1" source="384" target="383" edge="1">
                    <mxGeometry width="50" height="50" relative="1" as="geometry">
                        <mxPoint x="480" y="1980" as="sourcePoint"/>
                        <mxPoint x="320" y="1980" as="targetPoint"/>
                        <Array as="points">
                            <mxPoint x="580" y="1930"/>
                        </Array>
                    </mxGeometry>
                </mxCell>
                <mxCell id="394" value="dep" style="edgeLabel;html=1;align=center;verticalAlign=middle;resizable=0;points=[];fontSize=13;" parent="390" vertex="1" connectable="0">
                    <mxGeometry x="-0.2385" y="11" relative="1" as="geometry">
                        <mxPoint x="-3" y="-4" as="offset"/>
                    </mxGeometry>
                </mxCell>
                <mxCell id="395" value="Buyer" style="text;html=1;strokeColor=none;fillColor=none;align=center;verticalAlign=middle;whiteSpace=wrap;rounded=0;dashed=1;fontSize=13;" parent="1" vertex="1">
                    <mxGeometry x="190" y="2000" width="60" height="30" as="geometry"/>
                </mxCell>
                <mxCell id="396" value="LU" style="text;html=1;strokeColor=none;fillColor=none;align=center;verticalAlign=middle;whiteSpace=wrap;rounded=0;dashed=1;fontSize=13;" parent="1" vertex="1">
                    <mxGeometry x="270" y="2000" width="60" height="30" as="geometry"/>
                </mxCell>
                <mxCell id="398" value="Goods" style="text;html=1;strokeColor=none;fillColor=none;align=center;verticalAlign=middle;whiteSpace=wrap;rounded=0;dashed=1;fontSize=13;" parent="1" vertex="1">
                    <mxGeometry x="430" y="2000" width="60" height="30" as="geometry"/>
                </mxCell>
                <mxCell id="399" value="Recipient" style="text;html=1;strokeColor=none;fillColor=none;align=center;verticalAlign=middle;whiteSpace=wrap;rounded=0;dashed=1;fontSize=13;" parent="1" vertex="1">
                    <mxGeometry x="590" y="2000" width="60" height="30" as="geometry"/>
                </mxCell>
                <mxCell id="437" value="Mary" style="ellipse;whiteSpace=wrap;html=1;aspect=fixed;fillColor=none;fontStyle=1;fontSize=13;strokeWidth=2;" vertex="1" parent="1">
                    <mxGeometry x="211" y="2190" width="40" height="40" as="geometry"/>
                </mxCell>
                <mxCell id="438" value="buys" style="ellipse;whiteSpace=wrap;html=1;aspect=fixed;fillColor=none;fontStyle=1;strokeWidth=2;" vertex="1" parent="1">
                    <mxGeometry x="291" y="2190" width="40" height="40" as="geometry"/>
                </mxCell>
                <mxCell id="439" value="a" style="ellipse;whiteSpace=wrap;html=1;aspect=fixed;fillColor=none;fontStyle=1;fontSize=13;strokeWidth=2;" vertex="1" parent="1">
                    <mxGeometry x="351" y="2190" width="40" height="40" as="geometry"/>
                </mxCell>
                <mxCell id="440" value="beau-tiful" style="ellipse;whiteSpace=wrap;html=1;aspect=fixed;fillColor=none;fontStyle=1;fontSize=13;strokeWidth=2;align=center;" vertex="1" parent="1">
                    <mxGeometry x="415" y="2190" width="40" height="40" as="geometry"/>
                </mxCell>
                <mxCell id="441" value="car" style="ellipse;whiteSpace=wrap;html=1;aspect=fixed;fillColor=none;fontStyle=1;fontSize=13;strokeWidth=2;" vertex="1" parent="1">
                    <mxGeometry x="531" y="2190" width="40" height="40" as="geometry"/>
                </mxCell>
                <mxCell id="443" value="" style="curved=1;endArrow=none;html=1;strokeWidth=2;fontSize=11;exitX=0.5;exitY=0;exitDx=0;exitDy=0;entryX=0.5;entryY=0;entryDx=0;entryDy=0;endFill=0;startArrow=classicThin;startFill=1;" edge="1" parent="1" source="437" target="438">
                    <mxGeometry width="50" height="50" relative="1" as="geometry">
                        <mxPoint x="451" y="2200" as="sourcePoint"/>
                        <mxPoint x="501" y="2150" as="targetPoint"/>
                        <Array as="points">
                            <mxPoint x="271" y="2150"/>
                        </Array>
                    </mxGeometry>
                </mxCell>
                <mxCell id="444" value="subject" style="edgeLabel;html=1;align=center;verticalAlign=middle;resizable=0;points=[];fontSize=13;" vertex="1" connectable="0" parent="443">
                    <mxGeometry x="0.3262" y="-13" relative="1" as="geometry">
                        <mxPoint x="-4" y="-2" as="offset"/>
                    </mxGeometry>
                </mxCell>
                <mxCell id="447" value="" style="curved=1;endArrow=none;html=1;strokeWidth=2;fontSize=11;exitX=0.5;exitY=0;exitDx=0;exitDy=0;endFill=0;startArrow=classicThin;startFill=1;entryX=0.5;entryY=0;entryDx=0;entryDy=0;" edge="1" parent="1" source="441" target="438">
                    <mxGeometry width="50" height="50" relative="1" as="geometry">
                        <mxPoint x="481" y="2200" as="sourcePoint"/>
                        <mxPoint x="321" y="2200" as="targetPoint"/>
                        <Array as="points">
                            <mxPoint x="430" y="2110"/>
                        </Array>
                    </mxGeometry>
                </mxCell>
                <mxCell id="460" value="object" style="edgeLabel;html=1;align=center;verticalAlign=middle;resizable=0;points=[];fontSize=13;" vertex="1" connectable="0" parent="447">
                    <mxGeometry x="-0.1443" y="32" relative="1" as="geometry">
                        <mxPoint y="-1" as="offset"/>
                    </mxGeometry>
                </mxCell>
                <mxCell id="451" value="A" style="text;html=1;strokeColor=none;fillColor=none;align=center;verticalAlign=middle;whiteSpace=wrap;rounded=0;dashed=1;fontSize=13;" vertex="1" parent="1">
                    <mxGeometry x="201" y="2230" width="60" height="30" as="geometry"/>
                </mxCell>
                <mxCell id="452" value="C" style="text;html=1;strokeColor=none;fillColor=none;align=center;verticalAlign=middle;whiteSpace=wrap;rounded=0;dashed=1;fontSize=13;" vertex="1" parent="1">
                    <mxGeometry x="281" y="2230" width="60" height="30" as="geometry"/>
                </mxCell>
                <mxCell id="453" value="B" style="text;html=1;strokeColor=none;fillColor=none;align=center;verticalAlign=middle;whiteSpace=wrap;rounded=0;dashed=1;fontSize=13;" vertex="1" parent="1">
                    <mxGeometry x="521" y="2230" width="60" height="30" as="geometry"/>
                </mxCell>
                <mxCell id="455" value="" style="curved=1;endArrow=none;html=1;strokeWidth=2;fontSize=11;exitX=0.5;exitY=0;exitDx=0;exitDy=0;entryX=0.5;entryY=0;entryDx=0;entryDy=0;endFill=0;startArrow=classicThin;startFill=1;" edge="1" parent="1" source="441" target="440">
                    <mxGeometry width="50" height="50" relative="1" as="geometry">
                        <mxPoint x="241" y="2200" as="sourcePoint"/>
                        <mxPoint x="321" y="2200" as="targetPoint"/>
                        <Array as="points">
                            <mxPoint x="490" y="2170"/>
                        </Array>
                    </mxGeometry>
                </mxCell>
                <mxCell id="458" value="property" style="edgeLabel;html=1;align=center;verticalAlign=middle;resizable=0;points=[];fontSize=13;" vertex="1" connectable="0" parent="455">
                    <mxGeometry x="-0.0252" y="9" relative="1" as="geometry">
                        <mxPoint y="-2" as="offset"/>
                    </mxGeometry>
                </mxCell>
            </root>
        </mxGraphModel>
    </diagram>
</mxfile>